<?xml version="1.0" encoding="UTF-8"?>
<svg data-bbox="-0.029 -0.002 134.989 110.311" viewBox="0 0 135.02 110.33" xmlns="http://www.w3.org/2000/svg" data-type="color">
    <g>
        <path d="M120 35a12.64 12.64 0 0 1 10.79-4.68c2.17.2 2.66 1.34 1.55 3.26A16.84 16.84 0 0 1 125.8 40a10 10 0 0 1-4.4 1.26c-1.3 0-4.3-.08-3.87-2.09A10.38 10.38 0 0 1 120 35zm-68.08.58c-2.92.48-5.84-.94-8.18-2.76-6.64-5.11-10.14-13.24-12.36-21.29-.87-3.19-1.72-6.64-4.2-8.82A6.31 6.31 0 0 0 22 1.33C20 1.7 19.15 3 18.17 4.58c-2.24 3.57-.73 8.2 2 11.05 3 3.1 7.17 4.82 10.57 7.51a23.32 23.32 0 0 1 8.71 16.52c.26 3.76-1.17 8.4-4.88 9.08a6.74 6.74 0 0 1-4.48-1c-4.81-2.72-7.28-8.43-12-11.32-1.29-.79-3-1.33-4.29-.56-2 1.18-1.38 4.44.42 5.9s4.24 1.81 6.38 2.7 4.25 2.88 3.83 5.16c-1.31.14-2.08-1.33-2.89-2.37s-2.89-1.43-3.05-.13 1.29 1.51 2 2.25c2.15 2.29-1.06 6.08-1.82 8.39-1.1 3.35-1.62 6.88-2.77 10.22-.94 2.73-2.4 6.39-5.74 6.72S5.3 69.78 1.8 70.83c-2 .59-2.4 3.55-1 4.92 1 1 2.29.67 3.54.95s1.8 1.13 2.66 2.19c.47.63 1.3 1.16 2 .82 1.33-.64 1.2-3.34 3.24-1.69a15.38 15.38 0 0 1 3.4 4.33c1.17 2 2.23 4.05 4.11 5.44a10.13 10.13 0 0 0 9.06 1.57c1.38-.46 8-2.75 8.46-.3a1.92 1.92 0 0 1-.75 1.72c-1.67 1.38-5 2.07-5.42 4.57-.31 1.7 1.84 3 3.49 2.55 2.81-.84 3.41-3.73 3.41-6.33a3.74 3.74 0 0 1 .52-2.21c1.94-2.73 5.43.7 5.35 3a10.18 10.18 0 0 1-3.59 6.73c-2.89 2.34-6.63 4-8.23 7.34a3 3 0 0 0-.21 2.66c.61 1.2 2.26 1.39 3.58 1.1 5.4-1.22 6.68-7 8-11.61a7.82 7.82 0 0 1 2-3.66c2.38-2.17 4.91 1.08 7.17 1.76a11.74 11.74 0 0 0 8.08-1 15.59 15.59 0 0 0 3.44-3c1.7-1.62 5.9-4.69 8.35-4a4.61 4.61 0 0 1 3 3.51c.48 2.16.15 4.38.17 6.57 0 1 .52 2 1.74 1.67 5-1.21-.28-7-1.07-9.32-1.5-4.35 3.56-6.16 6.85-6.87a3.4 3.4 0 0 1 1.92-.05c1.49.54 1.5 2.58 1.6 4.16s1.53 3.65 2.88 2.77c.94-.59.72-2.09 0-3a21.91 21.91 0 0 1-2.26-2.47c-.54-1-.21-2.58.9-2.67a14.55 14.55 0 0 0 4.28 5.1c.62-.32.44-1.31-.06-1.79s-1.21-.75-1.63-1.31c-.93-1.25.08-3 1-4.17 1.72-2.12 3.52-4.31 6-5.45s5.84-.85 7.42 1.37c.83 1.17 1.08 2.72 2.09 3.74s3.33.71 3.22-.72a2.43 2.43 0 0 0-1-1.51l-5.65-4.85c5.63 0 8.9 7.8 14.53 7.77-2.18-4.72-9.72-4.8-12-9.48 2.91-.77 5.75 1.21 8.14 3q5.79 4.41 11.88 8.39a10 10 0 0 0 4.65 2c1.7.11 3.61-.91 3.87-2.6s-1.21-3.21-2.68-4.14c-3.86-2.44-8.5-3.22-12.88-4.5s-8.91-3.36-11.16-7.33c-1.79-3.17-1.84-7.09-.94-10.62a47.26 47.26 0 0 1 4.35-10c1.25-2.39 2.18-5.93-.15-7.29-1.72-1-4.26 0-5.68-1.38-1.21-1.18-.67-3.26.31-4.64s2.36-2.55 2.79-4.18-1-3.81-2.55-3.26a2.7 2.7 0 0 0-1.31 1.19c-1.09 1.7-1.42 3.78-2.22 5.64s-2.38 3.67-4.4 3.64c-2.48 0-4-2.7-4.67-5.09a24.24 24.24 0 0 1 .52-14.33c1.7-4.81 4.88-9 6.54-13.8A2 2 0 0 0 101 1a1.7 1.7 0 0 0-1.17-.82C97-.63 94 1.38 92.78 4s-1.08 5.7-.72 8.59.93 5.82.45 8.69A3.43 3.43 0 0 1 90.9 24c-1.89.85-3.71-1.7-3.42-3.75s1.68-3.79 2.09-5.82-1-4.72-3-4.22c-1.82.46-2.08 2.92-1.9 4.79a26.75 26.75 0 0 1 .1 7.42 7.75 7.75 0 0 1-4.11 5.85c-2.29 1-5.43 0-6.15-2.41-.78-2.6 1.1-6.21-1.17-7.69-1.39-.91-3.45.15-4 1.74s.32 3 1.11 4.2c.33.52 3.28 4.37 1.29 4.2a1 1 0 0 1-.79-.84c-.15-.59-.08-2.13-1.08-2-.78.12-.87 1.42-.79 2 .16 1 .74 2.07.07 3.08-.49.71-1.71.42-2.16-.31a4.26 4.26 0 0 1-.32-2.53A45.49 45.49 0 0 0 65 11.84c-.56-1.92-2.33-4.26-4-3.2-1 .64-1.07 2.13-.9 3.34a29.46 29.46 0 0 0 2.52 8.52c.83 1.77 1.87 3.56 1.81 5.51s-1.83 4-3.72 3.49-2.36-3.15-2.13-5.17.56-4.41-.93-5.79a3.48 3.48 0 0 0-4.95.74 4.89 4.89 0 0 0 .12 5.33c1.07 1.64 2.92 2.77 3.56 4.61.7 2-.43 4.17-2.21 5.41a5.76 5.76 0 0 1-2.3.96zm45.56 58.66c.72.41 1.47.1 1.3-.84-.27-1.52-2-3.24-3.17-4.07-1.84-1.27-1.17 1.38-.75 2.23a7 7 0 0 0 2.62 2.68z" fill="#00aeef" data-color="1"/>
    </g>
</svg>
