<?xml version="1.0" encoding="UTF-8"?>
<svg data-bbox="-0.007 -0.006 533.786 329.371" viewBox="0 0 533.78 329.36" xmlns="http://www.w3.org/2000/svg" data-type="color">
    <g>
        <g>
            <path d="M65.32 0a5 5 0 0 1 3.14 1.08c.92.91.91 2.39.76 3.68-.26 2.32-.76 4.61-1 6.94a53.42 53.42 0 0 0 .8 12.67 54.1 54.1 0 0 0 1.29 6.69c.34 1.22 1.39 6.22 3.39 5.24 1.47-.71 1.9-4 2.14-5.4a23.79 23.79 0 0 1 1.45-6.07c.22-.48.57-1 1.1-1 .75 0 1.14.86 1.25 1.61a13.18 13.18 0 0 1-1.61 8.45A13.18 13.18 0 0 0 77 35.93a2.63 2.63 0 0 0 .11 2.26 1.5 1.5 0 0 0 2 .54c.76-.54.63-1.67.63-2.6a6 6 0 0 1 .39-2.13c.26-.67.92-1.39 1.56-1.07a1.15 1.15 0 0 1 .53.82c.29 1.29-.36 2.59-.89 3.81s-1 2.69-.25 3.82c1.3 2.11 5 1.56 7 1.12A12.88 12.88 0 0 0 96 37.34c1.85-3 1.38-7.47 3.85-10a2.53 2.53 0 0 1 3.33-.4 3.43 3.43 0 0 1 .87 1.74 8 8 0 0 1 .19 4.87c-.89 2.43-3.54 3.6-5.62 5.13a13.54 13.54 0 0 0-5.15 7.11.91.91 0 0 0 0 .65c1.38 2.56 6.81-2.65 8-3.52a1.2 1.2 0 0 1 1.06-.3c.41.15.52.69.45 1.12a3.34 3.34 0 0 1-1.16 1.9c-2 1.74-6.49 3.62-6.32 6.87.11 2.23 2.76 3.24 4.58 3.76 1.34.38.58 2.18.36 3.07a6.56 6.56 0 0 0 .19 4.64c.85 1.65 2.56 2.61 4.24 1.46 1.34-.91 1.6-2.76 3.33-3.27a4 4 0 0 1 3.13.66 7 7 0 0 1 3.17 5.46 3 3 0 0 1-.66 2.28 2.82 2.82 0 0 1-1.32.7 5.57 5.57 0 0 1-4.69-.92c-.87-.66-1.52-1.56-2.34-2.26-2.12-1.81-4.35-.33-4.9 2.07a35.36 35.36 0 0 0-.81 6.15c-.07 1.41-.09 2.84 0 4.26.08 1.91 1.42 2.41 3.12 2.4a12.44 12.44 0 0 1 4.44.55 38.79 38.79 0 0 0 4.73 1.75c2.44.55 5 .78 7.35 1.52 2.58.81 4.9 1.68 7.58.8 2.34-.76 4.64-2.43 7.22-2 .73.13 1.56.51 1.57 1.36a3 3 0 0 1-.37 1.3 6.35 6.35 0 0 1-2 2.81 5.08 5.08 0 0 1-2.45.7 39.77 39.77 0 0 1-6.27-.26 47.57 47.57 0 0 1-6.08-.58 38.1 38.1 0 0 1-11.52-4.91c-2.51-1.48-6.57-3.44-8.15.46a2.58 2.58 0 0 0 .59 3c1.25.93 3.18.24 4.57 0 2.58-.36 4.79 1.34 3.52 4.32-.89 2.07-3 .58-4.17-.28-1.55-1.17-4.24-3.79-6.12-1.58a3.35 3.35 0 0 0-.61 2.83 4.08 4.08 0 0 0 2.07 3c1.36.59 2.82-.51 4.1.15 1.71.87 1.42 4 1.14 5.52a4.44 4.44 0 0 1-1.39 2.62c-1.63 1.38-3.55.48-4.2-1.38a12.72 12.72 0 0 1-.44-3.14c-.74-8.47-8.84-2.82-12.36.07a5.21 5.21 0 0 0-2.23 3.15c-.18 1.67 1.28 3.07 2.06 4.41 1.61 2.78 6.41 11.18 2.72 13.9-3.18 2.35-5.8-2.19-6.34-4.67-.66-3.07-.26-6.24-.73-9.33-.5-3.33-2.7-5.4-6.18-5.14a9.71 9.71 0 0 0-7.65 4.61c-1.89 3.23-1.18 7.31-2.8 10.69a3 3 0 0 1-2.79 1.82c-.94 0-1.48-.61-2.25-1s-1.9-.43-2.63-1.1a2.65 2.65 0 0 1-.65-2.47c.87-4.22 6.29-8.77 5.49-13.21-.6-3.37-6-1.57-7.81-4a15.48 15.48 0 0 1-1.13-2.6c-.81-1.63-2.68-2.22-3.88-3.53-1.38-1.51-2.31-3.41-4-4.68-3.07-2.37-9.6-4.11-12.9-1.44-.85.68-1.55 1.54-2.38 2.23a6 6 0 0 1-3.06 1.07c-1.68.15-2-.52-3-1.8-.78-1-2.26-2.81-1.42-4.16 1.51-2.43 7.67-1.18 10-1.22 2.53 0 5.12.36 7.58-.41 2.7-.84 3.49-3.52 2-5.87a7 7 0 0 0-4.41-3.29c-2.3-.57-4.77-.62-7.11-1a52.53 52.53 0 0 0-7.15-.19 62.11 62.11 0 0 0-10.41.75c-3.44.56-7 2.11-10.46 2.1a2.1 2.1 0 0 1-1.97-.82 2.26 2.26 0 0 1-.1-1.4 5.32 5.32 0 0 1 1.22-3.1c1.23-1.24 3.24-1.11 5-.85 5.74.87 11.12 2.56 17 2.48l4.35-.06a26.54 26.54 0 0 0 3.09-.16c2.65-.34 5.2-.09 7.84-.38a4.87 4.87 0 0 0 1.72-.45 1.91 1.91 0 0 0 1-1.36c.14-1.1-.94-1.95-2-2.34-2.79-1.06-5.8-.56-8.7-.45-.71 0-2.93.43-2.42-.8.21-.5 1.44-.89 1.93-1a15.77 15.77 0 0 1 6.19.25c2.11.42 4.78 2.13 6.8.58A3.55 3.55 0 0 0 44.32 63a10.1 10.1 0 0 0-4.15-9.22A9.9 9.9 0 0 0 34.79 52c-1.63 0-3.49.31-4.82-.9a2 2 0 0 1-.66-2.1 2.36 2.36 0 0 1 2-1.33c5-.67 8.19 5.27 13.21 4.74 1.62-.18-.26-2-.73-2.4-.79-.76-1.92-1.29-2.52-2.24-.72-1.15.09-2.64 1.31-1.39.84.85 1.24 2 2.07 2.9C46.29 51 50 51 51.1 48.66c1.62-3.27 0-7.84-2.65-10.08-4-3.47-10.29-4.75-13.35-9.33a4.55 4.55 0 0 1-.82-3.12c.5-3.44 4.57-2.74 6.4-.92 2.37 2.37 4 5.68 5.73 8.5s3.68 5.77 6.49 7.62c5.07 3.35 12.31-.61 13.86-5.93a35.61 35.61 0 0 0 .83-12c-.24-4-.61-7.83-2.27-11.5-1.32-2.9-3-5.71-3.81-8.84C60.92.78 63.16-.09 65.32 0zm39.3 48.79a8.59 8.59 0 0 0-1.92 5.54 1.66 1.66 0 0 0 .17.76 1.41 1.41 0 0 0 1.71.5 4.42 4.42 0 0 0 1.55-1.17 29.61 29.61 0 0 1 7.17-5.2 13.55 13.55 0 0 0 3-1.78 3.52 3.52 0 0 0 1.27-3.06c-.9-5-10 1.47-11.59 3a11.29 11.29 0 0 0-1.36 1.42zm-88.28 17.5a7.74 7.74 0 0 0 4.75-.56 1.85 1.85 0 0 0 .79-.75c.43-.87-.34-1.54-1-1.9a8.65 8.65 0 0 0-4.48-1.29c-1.63.15-3.27 2.34-1.81 3.75a3.27 3.27 0 0 0 1.75.75zm34.49 65.42a4.93 4.93 0 0 0 7.89-.47 4.4 4.4 0 0 0-1-5.45c-3-2.42-8.88 1.88-7.17 5.46a4.25 4.25 0 0 0 .28.46z" fill="#fff200" data-color="1"/>
            <path d="M406.58 235.12c-.43-.89-1.18-1.64-1.69-2.49-1.56-2.67.33-5.37 3.41-4.69a6.55 6.55 0 0 1 3.57 2.51c2.08 2.68 1.31 6.05-2.29 6.7a2.1 2.1 0 0 1-2-.48 5.53 5.53 0 0 1-1-1.55zm40.73 78.6a16.16 16.16 0 0 0 2.44 2.52c1.23 1 3.1 1.67 3.9-.22a4.59 4.59 0 0 0 .25-2 13.33 13.33 0 0 0-2.93-7.56c-2.4-3-6-1.33-5.69 2.4a9.53 9.53 0 0 0 2.03 4.86zM495 257.28a5.58 5.58 0 0 0-3.2.87c-1.2.79-.82 1.42.35 1.65a5.26 5.26 0 0 0 3.75-1c2.14-1.61-.68-2.18-2-1.47m-62.68-10c-3 .6-6.69.21-8-2.51-.58-1.23-.53-2.75-1.39-3.8a2.7 2.7 0 0 0-4.35 3.2c.54.81 1.53 1.36 1.73 2.32.32 1.57-1.61 2.55-3.15 3a51.54 51.54 0 0 0-12.44 5.77c-5.33 3.4-10.27 7.89-16.47 9.12-6.86 1.36-13.73-1.53-20.39-3.66-4.17-1.33-8.64-2.33-13-1.85-1.74.19-10.9 2.44-7 5.41a5.65 5.65 0 0 0 3.35.77l23.48.38a47.18 47.18 0 0 1 8.1 1.15c2.09.4 3.48 1.42 3.68 3.65a11.73 11.73 0 0 1-1 5.26c-.63 1.59-1.85 2.81-2.69 4.27a8.4 8.4 0 0 0-1.08 3.66c-.3 3.28-2.16 4.67-5 6.07a58.07 58.07 0 0 1-27.36 6.16 6.6 6.6 0 0 0-2.73.3c-2 .84-2.48 3.62-1.4 5.45a6.84 6.84 0 0 0 5.37 3c10.83 1 18.14-13.14 29-13.26-.42 3.18-3.64 5.07-6.31 6.86a12.75 12.75 0 0 0-3.63 3.54 5.26 5.26 0 0 0-.91 2.41c-.18 3.06 2.33.24 3.31-.63l6-5.34c2.12-1.88 4.43-4.59 7.25-5.39 3.94-1.11 7.69 2 10.58 4.93.81.81 1.68 1.79 1.55 2.92a3.62 3.62 0 0 1-.93 1.81 44.56 44.56 0 0 1-15.29 12.37 7.26 7.26 0 0 0-3.2 2.32c-1.23 2 .17 4.86 2.36 5.7a7.08 7.08 0 0 0 6.59-1.38c3.77-2.88 5.24-7.75 7.1-12.1s5-8.91 9.7-9.44a2.35 2.35 0 0 1 2 .52c1.49 1.67-2.18 3.72-2 5.95.15 1.61 2.51 2.21 3.82 1.24s1.67-2.77 1.63-4.4c-.05-1.89.23-4.66 2.13-4.52a3.88 3.88 0 0 1 1.71.82c2.37 1.51 5.4 1.4 8.19 1.06s5.68-.86 8.36 0 5 3.62 4.25 6.32c-.39 1.39-1.49 2.45-2.21 3.7a7.51 7.51 0 0 0 7.17 11.26c1.77-.16 3.72-1.34 3.69-3.12-.05-2.89-4.58-3.22-6.12-5.67a6.68 6.68 0 0 1-.55-4.09l.57-7.3a5.88 5.88 0 0 1 1-3.33c.74-.9 2.34-1.19 3-.24.51.7.3 1.67.42 2.53a3.22 3.22 0 1 0 4.23-3.49c-.89-.3-2-.26-2.57-1-1-1.24.67-3.07 2.28-3.19s3.3.53 4.83 0 2.47-2.2 3.77-3.23a5.71 5.71 0 0 1 5-.79c1.26.3 2.49.7 3.77.95.75.15 3 .7 3-.47.09-3.14-6.07-1.56-5-6 1.32-5.61 8.83-.56 11.85.13a6.13 6.13 0 0 0 5.16-.94c1-.75 2.39-2.44.46-3-1.65-.5-3.63-.09-5.33-.14-2.22-.07-8.29 1.76-6.87-2.21s5.45-6.09 9.46-6.39c7.56-.57 15.68-.39 23.1-2a17.81 17.81 0 0 0 8-3.81c.82-.73 1.88-2.41.42-3.13-1.86-.92-5.26.65-7 1.29-2.37.85-4.68 1.89-7.06 2.71a85.37 85.37 0 0 1-15 3.86c-2.49.37-5.4 1.29-7.91.6s-2.15-2.64-.89-4.35a13.4 13.4 0 0 1 4.18-3.38 1.68 1.68 0 0 0 .89-1.76c-.27-.81-1.38-1-2.21-.72-1.43.43-3.31 2.31-4.9 1.56-1.28-.6-.95-2.17-1-3.32-.26-4.22-7.88-4.88-7.44-8.79.23-2.05 4.58-2.92 6.05-3.68a6.88 6.88 0 0 0 3.57-3.67c.6-1.84-.4-4.46-2.6-4.36s-3.48 2.51-4.44 4.06a15.71 15.71 0 0 1-6.61 6.16 11.17 11.17 0 0 1-6.88.76 2.48 2.48 0 0 1-1.11-.52c-1.59-1.45 1.61-3.49 2.58-4.17 1.65-1.15 3.9-2.1 4.06-4.39.08-1.21-2-.78-2.71-.54-1.63.57-2.42 1.92-3.06 3.41a5.76 5.76 0 0 1-3.55 3.52c-1 .29-1.19-.5-.85-1.27a15 15 0 0 1 2.51-4.09c1.45-1.64 3.24-2.93 4.79-4.47s3.4-3.3 5-5.07c1.43-1.6 2.9-4 1.57-5.66-1.16-1.46-3.67-.91-4.87.52s-1.51 3.38-2 5.18a23.07 23.07 0 0 1-15.12 15.51 18.52 18.52 0 0 1-2.1.56z" fill="#ec008c" data-color="2"/>
            <path d="M506.33 108.53a12.6 12.6 0 0 1 10.79-4.68c2.17.2 2.66 1.34 1.55 3.26a16.84 16.84 0 0 1-6.49 6.4 10 10 0 0 1-4.4 1.25c-1.3 0-4.3-.07-3.87-2.08a10.38 10.38 0 0 1 2.42-4.15zm-68.08.57c-2.92.49-5.84-.93-8.18-2.75-6.59-5.12-10.07-13.26-12.31-21.35-.87-3.18-1.72-6.63-4.2-8.82a6.27 6.27 0 0 0-5.23-1.37c-1.91.37-2.8 1.69-3.78 3.24-2.24 3.57-.73 8.21 2 11.06 3 3.1 7.17 4.82 10.57 7.5a23.36 23.36 0 0 1 8.71 16.53c.26 3.76-1.18 8.4-4.88 9.08a6.79 6.79 0 0 1-4.48-1c-4.81-2.72-7.28-8.43-12-11.32-1.3-.79-3-1.34-4.3-.56-2 1.17-1.37 4.44.43 5.9s4.24 1.8 6.38 2.7 4.25 2.87 3.83 5.16c-1.31.14-2.09-1.34-2.89-2.37s-2.89-1.43-3.05-.13 1.28 1.51 2 2.25c2.15 2.29-1.06 6.08-1.82 8.38-1.1 3.36-1.62 6.88-2.77 10.23-.95 2.73-2.41 6.39-5.74 6.71s-4.86-4.92-8.37-3.87c-2 .6-2.39 3.56-1 4.93 1 1 2.29.67 3.54.95s1.79 1.12 2.6 2.18c.47.63 1.3 1.16 2 .82 1.33-.64 1.2-3.34 3.24-1.69a15.24 15.24 0 0 1 3.4 4.33c1.17 2 2.23 4 4.1 5.44a10.16 10.16 0 0 0 9.07 1.57c1.38-.46 8-2.76 8.46-.3a1.93 1.93 0 0 1-.75 1.72c-1.67 1.38-5 2.07-5.42 4.57-.31 1.7 1.84 3 3.49 2.54 2.86-.84 3.47-3.73 3.47-6.33a3.69 3.69 0 0 1 .52-2.2c1.93-2.73 5.43.7 5.35 3a10.2 10.2 0 0 1-3.59 6.73c-2.89 2.34-6.63 4-8.23 7.33a3.08 3.08 0 0 0-.22 2.67c.62 1.2 2.27 1.39 3.59 1.09 5.4-1.21 6.68-7 8-11.61a7.84 7.84 0 0 1 2-3.65c2.38-2.17 4.91 1.07 7.17 1.76a11.69 11.69 0 0 0 8.08-1 15.29 15.29 0 0 0 3.44-3c1.7-1.63 5.9-4.69 8.35-4a4.64 4.64 0 0 1 3 3.51c.48 2.16.15 4.39.17 6.57 0 1.05.51 2 1.74 1.68 5-1.21-.28-7-1.07-9.32-1.5-4.35 3.56-6.16 6.85-6.88a3.58 3.58 0 0 1 1.92-.05c1.49.55 1.5 2.59 1.6 4.17s1.49 3.56 2.83 2.72c.95-.6.73-2.09 0-3a21.91 21.91 0 0 1-2.26-2.47c-.54-1-.21-2.58.9-2.67a14.32 14.32 0 0 0 4.28 5.09c.62-.32.44-1.3-.07-1.79s-1.2-.75-1.62-1.31c-.93-1.24.08-3 1.05-4.17 1.72-2.12 3.52-4.31 6-5.44s5.84-.85 7.42 1.37c.83 1.17 1.08 2.72 2.09 3.74s3.33.71 3.22-.72a2.45 2.45 0 0 0-1-1.52l-5.65-4.84c5.63 0 8.9 7.8 14.53 7.76-2.18-4.72-9.72-4.79-12-9.47 2.91-.78 5.75 1.21 8.14 3 3.85 2.94 7.82 5.74 11.87 8.39a10.22 10.22 0 0 0 4.66 2c1.7.11 3.61-.92 3.86-2.6s-1.2-3.21-2.67-4.14c-3.86-2.44-8.5-3.22-12.88-4.5s-8.91-3.36-11.16-7.34c-1.8-3.16-1.84-7.08-.94-10.61a47 47 0 0 1 4.35-10c1.25-2.39 2.18-5.94-.15-7.3-1.72-1-4.26 0-5.68-1.37-1.21-1.18-.68-3.26.31-4.64s2.36-2.55 2.78-4.19-.95-3.81-2.54-3.25a2.65 2.65 0 0 0-1.31 1.19c-1.09 1.7-1.42 3.77-2.22 5.63s-2.38 3.68-4.4 3.65c-2.48 0-4-2.7-4.67-5.09a24.24 24.24 0 0 1 .52-14.33c1.69-4.81 4.88-9 6.54-13.81a2 2 0 0 0 .1-1.44 1.67 1.67 0 0 0-1.14-.81c-2.79-.81-5.8 1.2-7 3.84s-1.09 5.7-.72 8.59.93 5.81.45 8.69a3.45 3.45 0 0 1-1.61 2.72c-1.89.85-3.72-1.71-3.42-3.75S475.54 90 476 88s-1-4.73-3-4.22c-1.82.46-2.08 2.91-1.91 4.78a26.44 26.44 0 0 1 .11 7.43c-.45 2.44-1.83 4.86-4.12 5.84s-5.42 0-6.14-2.41c-.78-2.59 1.1-6.2-1.17-7.68-1.4-.91-3.46.14-4 1.74s.32 3 1.11 4.2c.33.52 3.28 4.37 1.29 4.2a1 1 0 0 1-.79-.84c-.15-.59-.08-2.13-1.08-2-.78.13-.87 1.43-.79 2 .16 1 .74 2.07.07 3.07-.49.72-1.71.43-2.16-.31a4.21 4.21 0 0 1-.32-2.52 45.46 45.46 0 0 0-1.65-15.91c-.56-1.93-2.34-4.26-4-3.21-1 .65-1.07 2.14-.9 3.35A29.09 29.09 0 0 0 449 94c.83 1.77 1.87 3.57 1.81 5.52s-1.83 4-3.72 3.48-2.36-3.14-2.13-5.16.56-4.41-.93-5.79a3.48 3.48 0 0 0-4.95.74 4.89 4.89 0 0 0 .12 5.33c1.06 1.64 2.91 2.76 3.56 4.61.7 2-.43 4.17-2.21 5.41a5.6 5.6 0 0 1-2.3.96zm45.61 58.66c.71.4 1.47.1 1.3-.85-.27-1.51-2-3.24-3.17-4.07-1.84-1.26-1.17 1.39-.75 2.24a7 7 0 0 0 2.62 2.68z" fill="#00aeef" data-color="3"/>
            <path d="M256.64 229.18c1.34-.94 6.79-2.63 7.85-.47s-5 3.41-6.22 3.49c-2.92.2-4.6-.91-1.63-3.02zm-29.34-20.75a93.54 93.54 0 0 1-20.5-8.31 52.5 52.5 0 0 0-10-4.45c-3.38-.94-7-.83-8.14-4.73-1.16-4.05 2.2-9.12 4.55-12.11 1.5-1.91 3.65-3.79 1.74-6.27a11.78 11.78 0 0 0-6.92-3.79c-3.13-.42-4.16 2.21-4.08 4.85.1 3.07.81 6.08 1.19 9.12 1 8-2.44 14.81-8.24 20.15s-13.07 8.77-19.8 12.89c-10.85 6.63-20.6 15.24-32.38 20-14.89 6-31.93 5.73-47.68 4.56-4.84-.36-9.79-.72-14.49.78-1.18.39-8.66 3-4.93 4.68 4.29 1.92 9.1.84 13.58.42 5-.47 9.89-1.54 14.79-2.5 10-1.95 21.2-3.09 29.71 2.54a3.84 3.84 0 0 1 2 2.43c.29 2.11-2.44 3.2-4.55 3.46a102.42 102.42 0 0 1-22.75.28c-2.38-.24-5.66.12-5.89 2.49-.21 2.17 2.53 3.32 4.71 3.36 9.89.17 19.72-7.82 28.89-4.08-4.67 5-15.36-.64-19.07 5.15 5.16 2.57 11.13-2.08 16.89-1.66a3.63 3.63 0 0 1 2.28.82c2.1 2-1.2 5.24-4.09 5.64s-6.69.7-7.33 3.54c3.89 1 7.67-3.3 11.56-2.32 3.49.88 4.59 5.74 2.86 8.89s-5.18 4.9-8.51 6.26c-8.55 3.5-17.55 5.74-26.46 8.14-8 2.16-17.07 5.42-19.89 13.21a4.56 4.56 0 0 0-.26 3c.71 2.14 3.54 2.59 5.77 2.26 7.82-1.16 14-6.95 20.19-11.86a113.4 113.4 0 0 1 26.92-15.84c3.85-1.6 8.06-3 12.1-2s7.49 5.35 6 9.25a11.14 11.14 0 0 1-3.21 4.06 254 254 0 0 1-32.75 25.4c-2.92 1.91-6.32 5-5 8.21a5.2 5.2 0 0 0 2.71 2.55c4.26 1.94 9.44-.13 12.7-3.49s5.11-7.79 7.34-11.9a68.75 68.75 0 0 1 22-24.21c5.21-3.5 12.12-6.28 17.56-3.14 3.62 2.09 6.37 6.65 10.52 6.16 3.06-.36 5-3.37 7.23-5.46s6.68-2.93 7.85-.08c.67 1.62-.23 3.41-.9 5-1.48 3.55-1.87 7.88.3 11.05s7.52 4.08 9.85 1 .48-7.38-1.23-10.81-3-8.15-.08-10.64c2-1.73 5.34-1.26 7.3.56a8.27 8.27 0 0 1 2.49 6.75c-.05 1.95 1.07 5 3.67 3.87 1.7-.76 2-3.17 1.45-4.77-.9-2.59-5.37-6.68-3.83-9.65a3.31 3.31 0 0 1 2.22-1.51c3-.76 5.82-1.14 8.14-3.5 1.68-1.71 2.82-3.82 4.39-5.61s6.07-7.23 8.63-4.15c1.42 1.7 3.88 5 6.51 3.68 5.14-2.52-5-4.77-5.73-5.59-5.23-5.74 5.08-9.38 9.05-10.92 4.21-1.64 8.93-2.26 13.24-.63 5.46 2.07 9.39 6.38 15.44 7.31 3.11.48 7-.21 9.07-2.85 4.11-5.29-3.91-7.41-7.51-7.62-4.21-.25-8.36.52-12.56.53-5.05 0-10.11-.25-15.17-.14s-4.36-5.41-3-7.67c1.5-2.46 4-3.59 6.81-4 1.94-.27 4.09-.35 5.53-1.68 1.93-1.81.76-4.85-1.92-4.51a8.78 8.78 0 0 1-2.54.22 3.41 3.41 0 0 1-2.45-2.24c-4.06-10.81 13.72-18 20.91-20.83 4.32-1.7 26.7-8.63 24-16.45a3 3 0 0 0-2.66-1.75c-6.7-.42-13.45 6.44-17.94 10.55-3.91 3.58-7.89 7.42-12.88 9.46-8.41 3.5-17.01 3.27-25.32 1.19zm-5.76 70.38a7.57 7.57 0 0 0 2.37.19 3.23 3.23 0 0 0 2.36-5.06c-1.18-1.75-3.79-2.5-5.77-2.71-1.54-.17-5 .38-5.58 2.12-.92 2.71 3.45 4.79 6.62 5.46z" fill="#f7941d" data-color="4"/>
            <path d="M436.85 259.37c-1.17-8.08-8.84-11.72-16.08-13.31a39.17 39.17 0 0 0-8.22-.87c-6.67 0-13.78.16-19.43 4.2a16.07 16.07 0 0 0-5.57 6.93c-1.8 4.44-.92 11.05 1.44 15.12 4.56 7.83 13.86 10.28 22.39 10.14 24.7-.43 24.26-8.7 24.72-11.27a.49.49 0 0 0-.48-.59l-15.7-.2a2.89 2.89 0 0 0-1.15.24c-10.43 4.47-13.21.71-13.94-1.21a.72.72 0 0 1 .65-1l29.77-.62c.84 0 1.57-1 1.73-1.81a18.26 18.26 0 0 0-.13-5.75zm-17.8-1.15a30.88 30.88 0 0 1-7.07.86 39 39 0 0 1-7.16-.79.63.63 0 0 1-.44-.91c.88-1.63 3.95-3.57 7.6-3.57s6.6 1.78 7.54 3.34a.73.73 0 0 1-.47 1.07z" fill="#ffffff" data-color="5"/>
            <path d="M379.86 258.68c2.69-1-1.74-6.25-2.84-7.37a21.52 21.52 0 0 0-10.55-5.86c-15.54-4.43-38.2 2.56-34.82 22.2 2 8.78 9.47 12.43 17.82 13.3 8.06 1 16.84.5 24.28-3a14.39 14.39 0 0 0 6.95-7.23c.4-.91 1.11-2.38.81-3.39a2 2 0 0 0-1.43-1.34c-3.36-.23-6.74-.08-10.11-.1-2.08 0-4-.46-5.59 1.14a25.69 25.69 0 0 1-2.79 2.63c-6.61 4.9-14.33.41-13.11-7.82.69-5.78 6.35-9.72 11.58-6.22 1.85 1.28 3.44 3.06 5.76 3.48 4.65.69 9.4.14 14.04-.42z" fill="#ffffff" data-color="5"/>
            <path d="M326.34 272.5c-.48-1.85-2.63-1.56-2.76-2.81-.18-1.87-.05-8.83-.36-13.89-.8-12.78-23.11-12-35.74-9.88a36.31 36.31 0 0 0-8.38 2.23 1.4 1.4 0 0 0-.6 2.11c1.3 1.82 3.3 4.57 4.42 6.14.36.5 2.08.66 2.67.48a47.59 47.59 0 0 1 15.26-2.12c1.93 0 5.94-.39 6.19 1.62.15 1.24-9.32 1.41-11.08 1.45a89.44 89.44 0 0 0-12 1.37c-13.76 2.85-14.22 19.89 4 21.5a38.29 38.29 0 0 0 10.89-.55 32.13 32.13 0 0 0 5.16-1.7 5.79 5.79 0 0 1 3.76-.62 3.13 3.13 0 0 1 1.32.67 3.11 3.11 0 0 0 1.95.72l12.14.08c2.39.09 2.92-.45 3-2.52a14.73 14.73 0 0 0 .16-4.28zM307 267.6a14.11 14.11 0 0 1-7.82 3.36c-4.35.47-7.91-.73-7.91-2.57 0-1.06 1.08-1.79 1.92-2.22A12.47 12.47 0 0 1 298 265a33.63 33.63 0 0 1 4.6 0 18.42 18.42 0 0 1 4.25.7 1.22 1.22 0 0 1 .4 1.59 1.26 1.26 0 0 1-.25.31z" fill="#ffffff" data-color="5"/>
            <path d="M261.6 248.2c-3.81-2.3-9.27-2.68-14.47-2.68A27.5 27.5 0 0 0 236 247.8a.72.72 0 0 1-1-.65v-.07a1.27 1.27 0 0 0-1.27-1.27h-12a1.82 1.82 0 0 0-1.82 1.82v38.66a2.08 2.08 0 0 0 2.08 2.08h11.23a1.82 1.82 0 0 0 1.82-1.82v-7.62a.8.8 0 0 1 1.12-.74 27.5 27.5 0 0 0 11 2.24c6.1 0 12.14-1.55 16.19-4.61a15.89 15.89 0 0 0 6.26-12.82 17.33 17.33 0 0 0-8.01-14.8zM244 269.84c-5 0-9-3.18-9-7.11s4.05-7.11 9-7.11 9 3.18 9 7.11-4 7.11-9 7.11z" fill="#ffffff" data-color="5"/>
            <path d="M212.07 254.93c2.05-.93 0-3.61-.88-4.67-5.78-6.49-16.09-5.24-24-5.38-5.21-.09-11.59.38-16 4.12a9.14 9.14 0 0 0-3 9.45c3 9.25 14.58 7.93 22.28 8.86 1.33.18 2.83.11 4 .79 2.84 1.94.24 3.83-2.24 3.18-2.17-.55-4.15-1.45-6.27-2.12-4.75-1.53-10.7-.32-16-.15a1.73 1.73 0 0 0-1.67 2c1.74 7.41 10.33 9.18 16.91 9.15 8.08.35 16.94.94 24.35-2.9 5.16-2.24 6.54-8.39 3.78-13.07-1.7-3-4.88-4.36-8.06-5.21-4.78-1.28-9.75-1.46-14.64-2.06a8.58 8.58 0 0 1-3.93-1.06c-.79-.51-.53-1.32.29-1.63a6.13 6.13 0 0 1 5 .06 9.89 9.89 0 0 0 2.56.63c4.53.33 16.04.4 17.52.01z" fill="#ffffff" data-color="5"/>
            <path d="M494.61 191.32c4.53-5.17 7.65-27.68 12.53-29l24.13-1.18a2.39 2.39 0 0 1 2.34 3.27c-10.15 21.3-17.9 59.73-35.57 70.88-11.68 7.37-26.9 3.93-40.59 2.32-5.09-.6-8.41-2.69-7-8.3 1.07-3.75 1.68-9.39 5.65-11.18 5.22.79 9.62 3 15 2.52 2.45-.2 2.45-1.63 2.67-3.15.47-3.14-21.32-45.19-23.3-50.43-1.24-3.27-2.13-4.8 1.43-5l25 .34c3.56.43 6.5 12.62 8.55 16 2 4.82 3.88 9.95 7 14.18.72 1.04 1.63-.72 2.16-1.27z" fill="#ffffff" data-color="5"/>
            <path d="M411 144.19v-.1a2.7 2.7 0 0 1 2.14-2.67 5.43 5.43 0 0 1 1.05-.1c2.48-.06 17.82 0 22 0a2.69 2.69 0 0 1 2.54 1.74 17.48 17.48 0 0 1 .75 5.88c0 7.92-.19 66.38-.19 66.38v1.6a6.24 6.24 0 0 1-6.23 6.13H417a6.23 6.23 0 0 1-6.23-6.26z" fill="#ffffff" data-color="5"/>
            <path d="M399.78 221a2.66 2.66 0 0 1-2.44 2.42c-3.68.29-8.86 0-15.63 0-1.39 0-9.79-.43-9.79-2.91v-55.16a3.17 3.17 0 0 1 3.16-3.16L397 162a3.93 3.93 0 0 1 3.68 4.19c.25 18.24 1.62 36.62-.9 54.81zm-1.36-79.11a13.87 13.87 0 0 0-3.35-.92c-4.59-.77-17.62.57-20.2 1.05a3.47 3.47 0 0 0-2.28 1.44 4 4 0 0 0-.67 2.3v2.93a14.69 14.69 0 0 0 .56 5.16c.39 1.07 1.18 2.24 2.44 2.24h22.65a2.87 2.87 0 0 0 2.86-2.87c0-2.43-.05-4.86 0-7.29a7.16 7.16 0 0 0-.21-2.21 2.92 2.92 0 0 0-1.8-1.83z" fill="#ffffff" data-color="5"/>
            <path d="M362.4 187.66c.19 1.34-.54 30.21-.54 30.21a5.17 5.17 0 0 1-5.24 5.06h-17.2a5.49 5.49 0 0 1-5.47-5.46c0-8.83.2-25.24.11-26.49-.09-16.94-25.41-14.09-28.21.31-.32 5.3.13 8.53.13 15.26 0 3.38.11 8 .22 11.54.08 2.69-2.09 5.35-4.78 5.32-7.28-.1-20.14-.27-21.37-.3-2.1-.06-3.76-2.25-3.7-4.35l.78-26.89s.38-12.38-14.3-12.13c-12 .21-13.47 7.88-13.67 10 0 0-.75 30.26-.74 30.3a3.66 3.66 0 0 1-3.74 3.56l-21-.52a3.64 3.64 0 0 1-3.55-3.73l1.32-53.76a3.64 3.64 0 0 1 3.73-3.55l21 .51a3.67 3.67 0 0 1 3.56 3.88c20.61-11.75 41.89-3.74 48.6.62 3.61 2.18 6.72-1.55 10.15-2.36 20.81-8.81 57.03-7.77 53.91 22.97z" fill="#ffffff" data-color="5"/>
            <path d="M211 210.48c-.89-3.41-4.85-2.88-5.08-5.17-.34-3.44-.09-16.26-.67-25.57-1.46-23.53-42.52-22-65.77-18.19a67.84 67.84 0 0 0-15.43 4.11 2.59 2.59 0 0 0-1.11 3.89c2.4 3.35 6.08 8.4 8.14 11.29.66.92 3.83 1.22 4.92.88 9.57-3 17.34-3.83 28.08-3.89 3.55 0 10.93-.73 11.4 3 .28 2.29-17.16 2.6-20.4 2.68A162.83 162.83 0 0 0 133 186c-25.32 5.25-26.18 36.61 7.4 39.57a70.15 70.15 0 0 0 20-1 58.66 58.66 0 0 0 9.5-3.12c2.32-.94 4.36-1.77 6.91-1.14a5.72 5.72 0 0 1 2.43 1.23 5.63 5.63 0 0 0 3.59 1.32l22.35.15c4.39.17 5.38-.83 5.6-4.64.22-2.58.82-5.59.22-7.89zm-35.58-9a26 26 0 0 1-14.4 6.2c-8 .86-14.55-1.35-14.55-4.74 0-1.95 2-3.3 3.53-4.08a22.78 22.78 0 0 1 8.85-2.17 63 63 0 0 1 8.47 0c1.41.1 6.78.63 7.82 1.31a2.17 2.17 0 0 1 .28 3.48z" fill="#ffffff" data-color="5"/>
            <path d="M105.44 164.28a1.72 1.72 0 0 0-1.36-1.73c-1.88-.43-4.94-1.52-4.34-4.06a5.23 5.23 0 0 1 4-3.67 1.91 1.91 0 0 0 1.36-1.82v-11a1.66 1.66 0 0 0-1.43-1.65c-1.87-.25-5.61-.65-11.59-.84s-11.3-.19-14.45 1.54c-7.75 4.24-8 13.17-7.71 17.11a2.34 2.34 0 0 1-1.76 2.46l-3 .79a2.2 2.2 0 0 0-1.65 2.08l-.28 12.34a2 2 0 0 0 1.94 2h1.24a3 3 0 0 1 2.82 3l.58 40.45c0 1.28 1.62 1.4 2.31 1.51 4.31.63 15.67.55 19.9.3 1.21-.07 6 .19 5.93-1.91l1.65-40.37a2.48 2.48 0 0 1 1.51-2.18c.56-.24 1.39-.5 2.2-.75a3.12 3.12 0 0 0 2.2-3z" fill="#ffffff" data-color="5"/>
            <path d="M246 122.49c-1.17-8.08-8.84-11.72-16.08-13.31a39.17 39.17 0 0 0-8.22-.87c-6.67 0-13.78.16-19.43 4.2a16.07 16.07 0 0 0-5.57 6.93c-1.8 4.44-.92 11.05 1.44 15.12 4.56 7.83 13.86 10.28 22.39 10.14 24.7-.43 24.26-8.7 24.72-11.27a.49.49 0 0 0-.48-.59l-15.7-.2a2.89 2.89 0 0 0-1.15.24c-10.43 4.47-13.21.71-13.94-1.21a.72.72 0 0 1 .65-1l29.77-.62c.84 0 1.57-1 1.73-1.81a18.26 18.26 0 0 0-.13-5.75zm-17.8-1.15a30.88 30.88 0 0 1-7.07.86 39 39 0 0 1-7.16-.79.63.63 0 0 1-.44-.91c.88-1.63 4-3.57 7.6-3.57s6.6 1.78 7.54 3.34a.73.73 0 0 1-.43 1.07z" fill="#ffffff" data-color="5"/>
            <path d="M191.47 132.16c-.25 4.71-.42 7.32-.53 8.73a1.74 1.74 0 0 1-1.74 1.61l-11.39.05a1.75 1.75 0 0 1-1.76-1.75v-14.67a7.16 7.16 0 0 0-7.47-7.09 9 9 0 0 0-6.25 1.92 6 6 0 0 0-2.17 4.71v15a1.78 1.78 0 0 1-1.77 1.78h-10.76a2.41 2.41 0 0 1-2.41-2.41V100.2a2.41 2.41 0 0 1 2.41-2.41H158a2.15 2.15 0 0 1 2.15 2.15v10.46a.69.69 0 0 0 .91.65c5-1.74 29-9 30.4 11.15a84 84 0 0 1 .01 9.96z" fill="#ffffff" data-color="5"/>
            <path d="M136.61 132.69a1.31 1.31 0 0 0 .89 1.27l1.39.47a.94.94 0 0 1 .49.82v5.91a.91.91 0 0 1-.64.87c-3.24 1-17.83 4.86-17.74-8l-.07-14.19a1.6 1.6 0 0 0-2-1.57.88.88 0 0 1-.91-.88v-7c0-1 1.36-.67 2.09-.77s.84-.42.84-1.2v-4.68a1.1 1.1 0 0 1 .8-1l13.93-3.87a1.05 1.05 0 0 1 1.33 1l-.17 8.12a.73.73 0 0 0 .78.75c.87-.17 1.76.22 1.78 1.2v6.32a1.4 1.4 0 0 1-1.37 1.4c-.66-.05-1.38.08-1.42.88-.02.02.04 10.85 0 14.15z" fill="#ffffff" data-color="5"/>
            <path d="M234.31 328.89v-14.31a6.35 6.35 0 0 0-.61-3.35 2 2 0 0 0-1.86-.79c-1.47 0-3 1-4.47 2.91v15.54h-5v-14.31a6.31 6.31 0 0 0-.62-3.35 2.07 2.07 0 0 0-1.87-.79c-1.47 0-3 1-4.46 2.9v15.55h-5v-22.45h5v1.61a7.33 7.33 0 0 1 5-2.09c2.85 0 4.84 1.07 5.92 3.19a9.89 9.89 0 0 1 3-2.46 7.3 7.3 0 0 1 3.08-.73c3.18 0 7 1.47 7 8.46v14.47zm17.78 0v-22.45h-5v22.45zm.06-24.73v-5.45h-5v5.45zm12.63 24.76v-15.37a4.87 4.87 0 0 1 4.05-2.51 7.09 7.09 0 0 1 2 .21l.91.28v-5.27l-.58-.1a9.51 9.51 0 0 0-1.77-.17 6.3 6.3 0 0 0-4.61 2.12v-1.65h-5v22.46zm24.93-1.44v1.38h5v-14.31c0-3.36-.84-5.67-2.48-6.88a10.93 10.93 0 0 0-6.53-1.74c-6 0-9.21 2.4-9.5 7.15l-.05.74h5v-.67c.06-1.24.56-2.9 4.3-2.9a5.92 5.92 0 0 1 3 .56 2 2 0 0 1 1 1.26 13 13 0 0 1 .21 2.43h-1.07c-8.64 0-13 2.72-13 8.09a6.2 6.2 0 0 0 2.2 4.9 8.09 8.09 0 0 0 5.46 1.87 10.9 10.9 0 0 0 6.46-1.88zm0-8.82v3.75a6.11 6.11 0 0 1-2.24 1.85 6.93 6.93 0 0 1-3.15.76 4.46 4.46 0 0 1-2.7-.72 2.24 2.24 0 0 1-.87-1.91c0-.92 0-3.73 7.18-3.73zm41.89 10.26v-14.47c0-7-3.79-8.46-7-8.46a7.15 7.15 0 0 0-3.08.73 9.89 9.89 0 0 0-3 2.46c-1.08-2.12-3.07-3.19-5.92-3.19a7.33 7.33 0 0 0-5 2.09v-1.62h-5v22.46h5v-15.55c1.49-1.93 3-2.91 4.45-2.91a2.06 2.06 0 0 1 1.88.8 6.31 6.31 0 0 1 .62 3.35v14.31h5v-15.55c1.5-1.93 3-2.91 4.47-2.91a2 2 0 0 1 1.86.8 6.35 6.35 0 0 1 .61 3.35v14.31zm20.68-1.52v1.38h5v-14.32c0-3.35-.84-5.67-2.48-6.87a10.86 10.86 0 0 0-6.53-1.74c-6 0-9.21 2.4-9.5 7.14l-.05.75h5v-.67c.05-1.25.56-2.91 4.3-2.91a5.83 5.83 0 0 1 3 .57 2 2 0 0 1 1 1.26 13 13 0 0 1 .21 2.43h-1.07c-8.64 0-13 2.72-13 8.08a6.24 6.24 0 0 0 2.2 4.91 8.09 8.09 0 0 0 5.46 1.87 11 11 0 0 0 6.46-1.88zm0-8.82v3.74a6.13 6.13 0 0 1-2.24 1.86 7.09 7.09 0 0 1-3.15.76 4.44 4.44 0 0 1-2.7-.73 2.22 2.22 0 0 1-.87-1.91c0-.92 0-3.72 7.18-3.72zm18 10.34v-15.37c1.17-1.69 2.49-2.51 4-2.51a7.09 7.09 0 0 1 2 .21l.91.28v-5.27l-.58-.1a9.43 9.43 0 0 0-1.77-.17 6.3 6.3 0 0 0-4.61 2.12v-1.65h-5v22.46z" fill="#ffffff" data-color="5"/>
        </g>
    </g>
</svg>
